; NON-PLATED HOLES START AT T1
; THROUGH (PLATED) HOLES START AT T100
M48
INCH
T1C0.125984
T100C0.040000
T101C0.051181
T102C0.015748
T103C0.035000
T104C0.042000
T105C0.030000
T106C0.031497
T107C0.038000
%
T1
X035453Y002823
X001453Y002823
X035453Y035823
X001953Y035823
T100
X016697Y002323
X005075Y002323
X001453Y024079
X001453Y025457
X024575Y002323
X023197Y002323
X032453Y002323
X003697Y002323
X031075Y002323
X025953Y002323
X011575Y002323
X019453Y002323
X029697Y002323
X010197Y002323
X018075Y002323
X001453Y021323
X001453Y022701
X012953Y002323
X006453Y002323
T101
X029453Y005323
X006453Y004323
X009953Y005323
X025953Y004323
X006453Y010323
X032453Y006173
X012953Y006173
X003453Y010323
X022953Y010323
X025953Y010323
X019453Y004323
X006453Y006173
X016453Y010323
X019453Y010323
X025953Y006173
X003453Y005323
X022953Y005323
X019453Y006173
X016453Y005323
X029453Y010323
X009953Y010323
X032453Y004323
X012953Y004323
X032453Y010323
X012953Y010323
T102
X019465Y035336
X020969Y033330
X014954Y018335
X020969Y011317
X012949Y035336
X025940Y012319
X020969Y018836
X023935Y021342
X016959Y037341
X019465Y019838
X016959Y018836
X017961Y036338
X020468Y021342
X017961Y018836
X024937Y019337
X012949Y011317
X022932Y018335
X019465Y021342
X018964Y012319
T103
X016953Y013823
X009953Y021323
X013953Y016823
X015953Y013823
X019953Y023323
X013953Y013823
X005953Y021323
X015953Y023323
X004453Y025323
X018953Y016823
X021953Y016823
X017953Y016823
X018953Y013823
X020953Y016823
X021953Y013823
X017953Y013823
X020953Y013823
X014953Y016823
X014953Y013823
X009953Y022323
X004453Y029323
X019953Y016823
X005953Y022323
X019953Y013823
X016953Y016823
X015953Y016823
T104
X005973Y025323
X008953Y025323
T105
X014953Y032323
X014953Y025323
X011953Y028323
X014953Y022323
X011953Y032323
X010453Y025323
X011953Y025323
X011953Y022323
X014953Y027323
X014953Y031323
X014953Y024323
X012453Y015825
X011953Y027323
X010453Y024321
X014953Y021323
X011953Y031323
X011953Y024323
X011953Y021323
X014953Y029323
X014953Y033323
X014953Y026323
X014953Y030323
X011953Y029323
X012453Y014823
X014953Y023323
X011953Y033323
X011953Y026323
X014953Y020323
X011953Y030323
X011953Y023323
X011953Y020323
X014953Y028323
T106
X021968Y035323
X022953Y026323
X021968Y026323
X022953Y032323
X021968Y032323
X022953Y029323
X022953Y023323
X021968Y029323
X005953Y029323
X021968Y023323
X006937Y029323
X022953Y035323
T107
X028953Y020323
X031453Y020323
X028953Y021323
X026453Y019323
X031453Y021323
X028953Y019323
X031453Y019323
X026453Y020323
X026453Y021323
T00
M30
